<svg width="24" height="24" viewBox="0 0 24 24" fill="none" xmlns="http://www.w3.org/2000/svg">
<g id="edit_icon">
<rect id="Rectangle" opacity="0.01" width="24" height="24" fill="white"/>
<g id="Icon">
<path id="Shape" d="M15.5903 4.90087L14.8832 4.19377L14.8832 4.19377L15.5903 4.90087ZM19.0536 8.40934L19.7514 9.12558L19.7514 9.12557L19.0536 8.40934ZM4.4933 15.9979L3.78619 15.2908L3.78617 15.2908L4.4933 15.9979ZM4 20H3C3 20.5523 3.44772 21 4 21V20ZM7.6484 19.5221L6.95054 18.8059L6.95053 18.8059L7.6484 19.5221ZM14.5317 7.37374L16.2974 5.60797L14.8832 4.19377L13.1175 5.95955L14.5317 7.37374ZM16.2974 5.60797C16.8695 5.03587 17.7971 5.03587 18.3692 5.60797L19.7834 4.19377C18.4303 2.8406 16.2363 2.8406 14.8832 4.19377L16.2974 5.60797ZM18.3692 5.608C18.9466 6.18535 18.9405 7.12329 18.3557 7.69312L19.7514 9.12557C21.1346 7.77783 21.1491 5.55935 19.7834 4.19374L18.3692 5.608ZM18.3557 7.69311L16.6354 9.36922L18.0312 10.8017L19.7514 9.12558L18.3557 7.69311ZM13.1175 5.95954L3.78619 15.2908L5.2004 16.705L14.5317 7.37376L13.1175 5.95954ZM3.78617 15.2908C3.28279 15.7942 3 16.4769 3 17.1889H5C5 17.0073 5.07209 16.8333 5.20042 16.705L3.78617 15.2908ZM3 17.1889V20H5V17.1889H3ZM4 21H6.47305V19H4V21ZM6.47305 21C7.17282 21 7.84499 20.7267 8.34627 20.2383L6.95053 18.8059C6.82281 18.9303 6.6515 19 6.47305 19V21ZM8.34627 20.2383L18.0312 10.8017L16.6354 9.36922L6.95054 18.8059L8.34627 20.2383ZM13.1267 7.38287L16.6354 10.8017L18.0312 9.36923L14.5225 5.95042L13.1267 7.38287Z" fill="#1A87DD"/>
</g>
</g>
</svg>
