<svg width="35" height="35" viewBox="0 0 35 35" fill="none" xmlns="http://www.w3.org/2000/svg">
<path d="M13.9426 2.34138L0.588931 30.1096C0.0263039 31.2794 0.273807 32.6011 1.23453 33.5586C2.1954 34.5162 3.6759 34.9167 5.0982 34.6037L16.3314 32.1321V20.0307C16.3314 19.4738 16.8546 19.0223 17.5001 19.0223C18.1454 19.0223 18.6687 19.4738 18.6687 20.0307V32.1321L29.9018 34.6037C31.3242 34.9167 32.8047 34.5162 33.7655 33.5586C34.7282 32.5991 34.9727 31.2774 34.4111 30.1095L21.0576 2.34132C20.4496 1.07704 19.0864 0.291706 17.5001 0.291706C15.9137 0.291706 14.5504 1.07704 13.9426 2.34138Z" fill="#63B8FC"/>
</svg>
