<svg width="18" height="18" viewBox="0 0 18 18" fill="none" xmlns="http://www.w3.org/2000/svg">
<rect opacity="0.01" y="18" width="18" height="18" transform="rotate(-90 0 18)" fill="white"/>
<path d="M7.91467 4.37533L3.84068 12.847C3.66904 13.2039 3.74455 13.6071 4.03765 13.8992C4.33079 14.1914 4.78247 14.3135 5.21639 14.2181L8.64348 13.464V9.77206C8.64348 9.60218 8.8031 9.46443 9.00001 9.46443C9.1969 9.46443 9.35655 9.60216 9.35655 9.77206V13.464L12.7836 14.2181C13.2176 14.3135 13.6692 14.1914 13.9624 13.8992C14.2561 13.6065 14.3306 13.2033 14.1593 12.847L10.0854 4.3753C9.89987 3.98959 9.48399 3.75 9.00001 3.75C8.51604 3.75 8.10013 3.98959 7.91467 4.37533Z" fill="#F8BB18"/>
</svg>
