<svg width="18" height="18" viewBox="0 0 18 18" fill="none" xmlns="http://www.w3.org/2000/svg">
<rect opacity="0.01" x="18" width="18" height="18" transform="rotate(90 18 0)" fill="white"/>
<path d="M10.0853 13.6247L14.1593 5.15301C14.331 4.79611 14.2555 4.39291 13.9624 4.10077C13.6692 3.80864 13.2175 3.68645 12.7836 3.78194L9.35652 4.53599V8.22794C9.35652 8.39782 9.1969 8.53557 8.99999 8.53557C8.8031 8.53557 8.64345 8.39784 8.64345 8.22794V4.53599L5.21639 3.78194C4.78244 3.68645 4.33077 3.80862 4.03764 4.10077C3.74395 4.3935 3.66937 4.79675 3.84068 5.15303L7.91464 13.6247C8.10013 14.0104 8.51601 14.25 8.99999 14.25C9.48396 14.25 9.89987 14.0104 10.0853 13.6247Z" fill="#1A87DD"/>
</svg>
